<!-- Generated by IcoMoon.io -->
<svg version="1.1" xmlns="http://www.w3.org/2000/svg" width="32" height="32" viewBox="0 0 32 32">
<title>usuario</title>
<path d="M16 1.8c-7.84 0-14.2 6.36-14.2 14.2s6.36 14.2 14.2 14.2 14.2-6.36 14.2-14.2-6.36-14.2-14.2-14.2zM7.6 24.84c2.32-3 5.28-4.64 8.4-4.64s6.080 1.64 8.4 4.64c-2.2 2.080-5.16 3.36-8.4 3.36s-6.2-1.28-8.4-3.36zM16 17.8c-2.32 0-4.16-1.88-4.16-4.16s1.84-4.16 4.16-4.16 4.16 1.88 4.16 4.16-1.84 4.16-4.16 4.16zM25.76 23.32c-1.8-2.24-3.96-3.8-6.28-4.56 1.64-1.12 2.72-3 2.72-5.12 0-3.4-2.76-6.16-6.16-6.16s-6.16 2.76-6.16 6.16c0 2.12 1.080 4 2.72 5.12-2.32 0.76-4.48 2.32-6.28 4.56-1.56-2.040-2.44-4.6-2.44-7.32 0-6.72 5.48-12.2 12.2-12.2s12.12 5.48 12.12 12.2c0 2.76-0.92 5.28-2.44 7.32z"></path>
</svg>
